<?xml version="1.0" encoding="utf-8"?>
<!-- Generator: Adobe Illustrator 26.0.1, SVG Export Plug-In . SVG Version: 6.00 Build 0)  -->
<svg version="1.1" id="Layer_1" xmlns="http://www.w3.org/2000/svg" xmlns:xlink="http://www.w3.org/1999/xlink" x="0px" y="0px"
	 viewBox="0 0 595.28 181.01" style="enable-background:new 0 0 595.28 181.01;" xml:space="preserve">
<style type="text/css">
	.st0{fill:#E74819;}
	
		.st1{clip-path:url(#SVGID_00000010278228075451755590000016111931413774380722_);fill:url(#SVGID_00000144311709632974987950000011115199522148200101_);}
	.st2{fill:#F6B201;}
	.st3{fill:#11100D;}
	.st4{fill:url(#SVGID_00000024701221515379875520000017103380445112085927_);}
</style>
<g>
	<g>
		<g>
			<path class="st0" d="M452.29,89.27h-19.74c-1.43,0-2.53-0.4-3.3-1.2c-0.77-0.8-1.16-1.86-1.16-3.18v-0.54
				c0-0.11,0.01-0.21,0.02-0.29c0.01-0.08,0.03-0.18,0.06-0.29c0.25-1.32,0.74-2.55,1.47-3.68c0.73-1.13,1.6-2.22,2.6-3.29
				c1-1.06,2.11-2.11,3.33-3.14c1.21-1.03,2.42-2.11,3.63-3.24h-11.69l1.45-8.1h17.64c0.69,0,1.34,0.12,1.96,0.37
				c0.62,0.25,1.15,0.6,1.59,1.05c0.44,0.46,0.79,0.98,1.05,1.59c0.26,0.61,0.39,1.28,0.39,2.02c0,0.36-0.04,0.74-0.12,1.16
				c-0.06,0.22-0.1,0.43-0.14,0.62c-0.04,0.19-0.12,0.4-0.23,0.62c-0.47,1.07-1.11,2.11-1.94,3.12c-0.83,1-1.74,1.98-2.75,2.93
				c-1,0.95-2.04,1.87-3.1,2.77c-1.06,0.89-2.04,1.75-2.95,2.58h13.38L452.29,89.27z"/>
		</g>
		<g>
			<defs>
				<polygon id="SVGID_1_" points="458.28,81.18 456.84,89.27 466.63,89.27 468.07,81.18 				"/>
			</defs>
			<clipPath id="SVGID_00000004526626920914295550000015737527788188425625_">
				<use xlink:href="#SVGID_1_"  style="overflow:visible;"/>
			</clipPath>
			
				<linearGradient id="SVGID_00000119807188447468134730000004470136987056002984_" gradientUnits="userSpaceOnUse" x1="1271.6743" y1="561.287" x2="1273.4812" y2="561.287" gradientTransform="matrix(6.2174 0 0 -6.2174 -7449.7129 3574.9897)">
				<stop  offset="0" style="stop-color:#EF7A5E"/>
				<stop  offset="0.9984" style="stop-color:#E63B19"/>
				<stop  offset="1" style="stop-color:#E63B19"/>
			</linearGradient>
			
				<rect x="456.84" y="81.18" style="clip-path:url(#SVGID_00000004526626920914295550000015737527788188425625_);fill:url(#SVGID_00000119807188447468134730000004470136987056002984_);" width="11.23" height="8.1"/>
		</g>
		<g>
			<path class="st2" d="M503.31,69.98l-2.03,11.65c-0.16,0.88-0.57,1.78-1.22,2.69c-0.65,0.91-1.41,1.73-2.29,2.46
				c-0.88,0.73-1.81,1.33-2.79,1.8c-0.98,0.47-1.87,0.7-2.67,0.7h-13.84c-0.74,0-1.49-0.2-2.23-0.6c-0.74-0.4-1.42-0.92-2.02-1.57
				c-0.61-0.65-1.1-1.38-1.49-2.19c-0.38-0.81-0.58-1.63-0.58-2.46c0-0.14,0.01-0.27,0.02-0.41c0.01-0.14,0.03-0.27,0.06-0.41
				l2.02-11.65c0.17-0.88,0.57-1.78,1.22-2.69c0.65-0.91,1.41-1.73,2.29-2.46c0.88-0.73,1.81-1.33,2.79-1.8
				c0.98-0.47,1.87-0.7,2.66-0.7h13.84c0.72,0,1.45,0.2,2.19,0.6c0.74,0.4,1.42,0.92,2.04,1.57c0.62,0.65,1.12,1.38,1.51,2.19
				c0.39,0.81,0.58,1.63,0.58,2.46c0,0.14-0.01,0.27-0.02,0.41C503.36,69.71,503.34,69.85,503.31,69.98 M482.82,77.3
				c-0.08,0.5-0.12,0.98-0.12,1.45c0,0.72,0.17,1.3,0.52,1.76c0.35,0.45,1.03,0.68,2.05,0.68h3.18c0.66,0,1.21-0.1,1.65-0.31
				c0.44-0.21,0.8-0.49,1.09-0.85c0.29-0.36,0.51-0.77,0.66-1.24c0.15-0.47,0.27-0.96,0.35-1.49l0.62-3.43
				c0.03-0.11,0.05-0.21,0.06-0.29c0.01-0.08,0.02-0.17,0.02-0.25v-0.54c0-0.72-0.19-1.29-0.56-1.71c-0.37-0.43-1.05-0.64-2.05-0.64
				h-3.18c-1.24,0-2.12,0.33-2.64,0.99c-0.52,0.66-0.87,1.47-1.03,2.44L482.82,77.3z"/>
			<path class="st3" d="M110.49,126.42H91.7l14.29-76.45h40.03c1.8,0,3.49,0.4,5.07,1.19c1.59,0.79,2.97,1.85,4.16,3.17
				c1.19,1.32,2.13,2.8,2.82,4.44c0.69,1.64,1.03,3.3,1.03,4.99c0,0.32-0.01,0.63-0.04,0.95c-0.03,0.32-0.07,0.64-0.12,0.95
				l-1.11,6.26c-0.32,1.75-1.11,3.55-2.38,5.43c-1.27,1.88-2.79,3.58-4.56,5.11c-1.77,1.53-3.67,2.79-5.71,3.77
				c-2.03,0.98-3.98,1.47-5.83,1.47h-21.24L110.49,126.42z M120.82,72.4h12.76c1.96,0,3.3-0.29,4.04-0.87
				c0.74-0.58,1.24-1.43,1.51-2.54l0.08-0.79c0-0.85-0.29-1.51-0.87-1.98c-0.58-0.48-1.77-0.71-3.57-0.71H122L120.82,72.4z"/>
			<path class="st3" d="M184.24,78.66c-0.16,0.95-0.24,1.88-0.24,2.77c0,1.38,0.33,2.5,0.99,3.37c0.66,0.87,1.97,1.31,3.92,1.31h6.1
				c1.27,0,2.33-0.2,3.17-0.59c0.85-0.4,1.55-0.94,2.1-1.62c0.55-0.69,0.98-1.48,1.27-2.38c0.29-0.9,0.52-1.85,0.67-2.85l5.07-28.7
				h18.87l-6.5,37.02c-0.32,1.69-1.1,3.41-2.34,5.15c-1.24,1.75-2.71,3.32-4.4,4.72c-1.69,1.4-3.47,2.55-5.35,3.45
				c-1.88,0.9-3.58,1.35-5.11,1.35h-26.56c-1.43,0-2.86-0.38-4.28-1.15c-1.43-0.77-2.72-1.77-3.88-3.01
				c-1.16-1.24-2.11-2.64-2.85-4.2c-0.74-1.56-1.11-3.13-1.11-4.72c0-0.26,0.01-0.53,0.04-0.79c0.03-0.27,0.07-0.53,0.12-0.8
				l6.5-37.02h18.87L184.24,78.66z"/>
			<polygon class="st3" points="225.78,101.65 234.89,49.97 253.68,49.97 247.34,86.11 267.79,86.11 265.02,101.65 			"/>
			<path class="st3" d="M276.19,86.11h25.68c-1.21-1.58-2.55-3.22-4-4.91c-1.45-1.69-2.81-3.45-4.08-5.27s-2.37-3.71-3.29-5.67
				c-0.92-1.96-1.47-3.96-1.62-6.02v-0.48c0-0.53,0.08-1.16,0.24-1.9c0.32-1.69,0.91-3.26,1.78-4.72c0.87-1.45,1.92-2.71,3.13-3.76
				c1.21-1.06,2.56-1.89,4.04-2.5c1.48-0.61,2.99-0.91,4.52-0.91h33.85l-2.77,15.54h-22.43c1.37,1.96,2.79,3.83,4.24,5.63
				c1.45,1.8,2.79,3.61,4,5.43c1.21,1.82,2.2,3.69,2.97,5.59c0.76,1.9,1.15,3.91,1.15,6.02c0,0.95-0.08,1.93-0.24,2.93
				c-0.26,1.53-0.77,2.93-1.51,4.2c-0.74,1.27-1.64,2.38-2.7,3.33c-1.06,0.95-2.26,1.69-3.61,2.22c-1.35,0.53-2.76,0.79-4.24,0.79
				h-37.89L276.19,86.11z"/>
			<polygon class="st3" points="385.5,82.63 358.55,82.63 357.99,86.11 387.09,86.11 384.31,101.65 336.43,101.65 345.55,49.97 
				393.43,49.97 390.65,65.5 361.56,65.5 361.01,68.99 387.96,68.99 			"/>
			
				<linearGradient id="SVGID_00000097483916078634128240000005317415858025456298_" gradientUnits="userSpaceOnUse" x1="1483.6718" y1="513.0078" x2="1485.4788" y2="513.0078" gradientTransform="matrix(211.294 0 0 -211.294 -313371.1562 108487.2812)">
				<stop  offset="0" style="stop-color:#EF7A5E"/>
				<stop  offset="0.9984" style="stop-color:#E63B19"/>
				<stop  offset="1" style="stop-color:#E63B19"/>
			</linearGradient>
			<path style="fill:url(#SVGID_00000097483916078634128240000005317415858025456298_);" d="M119.78,110.57h278.3v1.11l-1.06-0.32
				c0.15-0.48,0.58-0.79,1.06-0.79v1.11l-1.06-0.32l0,0l17.59-57.81l0,0c0.31-1.11,1.46-1.82,2.38-1.77c1.15,0,2.51,0.97,2.51,2.5
				l0,0.09l0,0l-2.48,75.02l0,0l-1.02-0.04h1.02l0,0.04l-1.02-0.04h1.02h-1.11v-1.12c0.49,0,1.1,0.46,1.11,1.12h-1.11v-1.12v1.11
				l-0.98-0.54c0.16-0.33,0.64-0.6,0.98-0.57v1.11l-0.98-0.54l0,0l9.97-18.04c0.44-0.8,1.29-1.29,2.19-1.29l74.5,0.03l0,3.61
				l-74.49-0.03l0-1.11l0.97,0.54c-0.2,0.36-0.58,0.58-0.97,0.57v-1.11l0.97,0.54l-9.97,18.04l0,0c-0.44,0.83-1.38,1.32-2.18,1.29
				c-1.2,0-2.51-0.98-2.51-2.5l0-0.09l0,0l2.48-75.04l0,0.03l1,0.04h-1l0-0.04l1,0.04h-1h1.1v1.12c-0.45,0-1.1-0.47-1.1-1.12h1.1
				v1.12v-1.11l1.07,0.33c-0.1,0.44-0.7,0.84-1.07,0.79v-1.11l1.07,0.33l0,0l-17.59,57.81l0,0c-0.32,1.06-1.3,1.78-2.39,1.78h-278.3
				V110.57z"/>
		</g>
	</g>
</g>
</svg>
